<?xml version="1.0" encoding="UTF-8" standalone="no"?>
<svg width="24px" height="26px" viewBox="0 0 24 26" version="1.1" xmlns="http://www.w3.org/2000/svg" xmlns:xlink="http://www.w3.org/1999/xlink" xmlns:sketch="http://www.bohemiancoding.com/sketch/ns">
    <!-- Generator: Sketch 3.3.3 (12081) - http://www.bohemiancoding.com/sketch -->
    <title>Fill 87</title>
    <desc>Created with Sketch.</desc>
    <defs></defs>
    <g id="Page-1" stroke="none" stroke-width="1" fill="none" fill-rule="evenodd" sketch:type="MSPage">
        <g id="Fill-87" sketch:type="MSLayerGroup" fill="#1B1A19">
            <path d="M8.32128679,25.7332194 C11.4472868,21.9112194 10.7662868,16.3042194 10.7662868,16.3042194 C10.2992868,18.8892194 7.69728679,20.4272194 6.63328679,20.5992194 C2.89828679,21.2182194 1.11628679,18.4722194 0.88528679,18.0522194 C-1.66671321,13.4632194 2.05428679,10.5972194 2.61028679,10.2592194 C5.98728679,8.18521937 8.71728679,10.5512194 8.71728679,10.5512194 C9.21928679,10.6592194 8.93328679,10.0422194 8.93328679,10.0422194 C6.13028679,8.51221937 5.99328679,5.91821937 6.09628679,5.05321937 C6.74028679,-0.116780625 11.8252868,0.00021937488 11.8252868,0.00021937488 C11.8252868,0.00021937488 16.9042868,-0.116780625 17.5512868,5.05321937 C17.6512868,5.91821937 17.5142868,8.51221937 14.7112868,10.0422194 C14.7112868,10.0422194 14.4252868,10.6592194 14.9262868,10.5512194 C14.9262868,10.5512194 17.6582868,8.18521937 21.0362868,10.2592194 C21.5902868,10.5972194 25.3112868,13.4632194 22.7612868,18.0522194 C22.5252868,18.4722194 20.7462868,21.2182194 17.0112868,20.5992194 C15.9462868,20.4272194 13.3472868,18.8892194 12.8802868,16.3042194 C12.8802868,16.3042194 12.1952868,21.9112194 15.3222868,25.7332194 L8.32128679,25.7332194" sketch:type="MSShapeGroup"></path>
        </g>
    </g>
</svg>