<?xml version="1.0" encoding="UTF-8" standalone="no"?>
<svg width="21px" height="28px" viewBox="0 0 21 28" version="1.1" xmlns="http://www.w3.org/2000/svg" xmlns:xlink="http://www.w3.org/1999/xlink" xmlns:sketch="http://www.bohemiancoding.com/sketch/ns">
    <!-- Generator: Sketch 3.3.3 (12081) - http://www.bohemiancoding.com/sketch -->
    <title>Fill 14</title>
    <desc>Created with Sketch.</desc>
    <defs></defs>
    <g id="Page-1" stroke="none" stroke-width="1" fill="none" fill-rule="evenodd" sketch:type="MSPage">
        <g id="Fill-14" sketch:type="MSLayerGroup" fill="#1B1A19">
            <path d="M10.177,0 C10.177,0 8.322,3.943 5.165,8.1 C1.772,12.567 0,15.101 0,18.445 C0,21.279 2.216,23.113 4.3,23.113 C6.429,23.113 7.812,22.34 8.534,19.579 C8.831,18.457 9.456,18.679 9.29,19.899 C9.094,21.342 9.079,24.479 6.75,27.312 L13.601,27.312 C11.274,24.479 11.259,21.342 11.063,19.899 C10.896,18.679 11.523,18.457 11.817,19.579 C12.54,22.34 13.925,23.113 16.052,23.113 C18.136,23.113 20.352,21.279 20.352,18.445 C20.352,15.101 18.58,12.567 15.187,8.1 C12.03,3.943 10.177,0 10.177,0" sketch:type="MSShapeGroup"></path>
        </g>
    </g>
</svg>